<?xml version="1.0" standalone="no"?>
<!DOCTYPE svg PUBLIC "-//W3C//DTD SVG 20010904//EN"
 "http://www.w3.org/TR/2001/REC-SVG-20010904/DTD/svg10.dtd">
<svg version="1.0" xmlns="http://www.w3.org/2000/svg"
 width="300.000000pt" height="300.000000pt" viewBox="0 0 300.000000 300.000000"
 preserveAspectRatio="xMidYMid meet">
<metadata>
Created by potrace 1.10, written by Peter Selinger 2001-2011
</metadata>
<g transform="translate(0.000000,300.000000) scale(0.100000,-0.100000)"
fill="#000000" stroke="none">
<path d="M29 2871 c-27 -22 -32 -83 -8 -105 7 -8 88 -47 179 -86 91 -40 166
-72 167 -73 1 -1 83 -397 182 -881 133 -644 186 -886 201 -906 45 -63 -3 -60
998 -60 852 0 911 1 930 17 34 29 37 66 9 99 l-25 29 -898 2 -898 3 -17 87
c-10 49 -20 96 -24 106 -7 16 41 17 925 17 1031 0 978 -3 1019 64 24 40 222
1004 222 1081 0 62 -15 94 -58 122 -25 17 -101 18 -1202 23 l-1175 5 -26 125
c-14 69 -34 137 -44 152 -10 15 -46 41 -79 56 -112 53 -326 142 -340 142 -8 0
-25 -8 -38 -19z m193 -85 c195 -84 223 -101 240 -138 9 -18 23 -75 33 -126 13
-67 25 -102 42 -123 l25 -29 1149 0 c1275 0 1196 4 1243 -67 25 -38 26 -41 11
-70 -9 -17 -60 -247 -114 -510 -55 -263 -104 -490 -111 -504 -6 -14 -24 -33
-40 -42 -26 -16 -107 -17 -943 -17 l-916 0 -28 -24 -27 -24 19 -98 c13 -66 26
-106 41 -123 l22 -26 888 -2 c594 -2 891 -6 898 -13 7 -7 7 -16 0 -28 -10 -16
-72 -17 -908 -20 -991 -2 -941 -6 -971 61 -9 18 -58 241 -111 497 -52 256
-127 618 -165 805 -39 187 -75 364 -81 393 -15 70 -37 88 -213 164 -155 66
-181 83 -164 105 19 22 50 15 181 -41z"/>
<path d="M610 2303 c-31 -12 -50 -37 -50 -68 0 -48 190 -957 203 -975 32 -40
9 -39 958 -40 718 0 918 3 930 12 38 32 32 8 204 851 37 181 36 194 -12 216
-25 11 -2203 15 -2233 4z m2240 -43 c0 -3 -45 -229 -102 -502 l-102 -498 -925
0 -926 0 -99 483 c-55 265 -101 491 -104 502 -3 20 2 20 1127 20 622 0 1131
-2 1131 -5z"/>
<path d="M1145 2005 c-14 -13 -25 -36 -25 -50 0 -14 11 -37 25 -50 l24 -25
549 0 c541 0 550 0 576 21 19 15 26 30 26 54 0 24 -7 39 -26 54 -26 21 -35 21
-576 21 l-549 0 -24 -25z m1103 -21 c14 -4 22 -14 22 -29 0 -15 -8 -25 -22
-29 -30 -8 -1026 -8 -1055 0 -28 8 -32 50 -5 57 26 7 1034 8 1060 1z"/>
<path d="M1230 1643 c-52 -19 -68 -85 -30 -123 19 -19 33 -20 520 -20 487 0
501 1 520 20 27 27 26 81 -1 106 -20 18 -45 19 -508 21 -267 1 -493 -1 -501
-4z m987 -59 c16 -42 -7 -44 -503 -44 -496 0 -505 1 -488 44 6 14 53 16 495
16 445 0 490 -1 496 -16z"/>
<path d="M1190 631 c-119 -36 -192 -135 -192 -257 0 -238 302 -352 457 -171
96 112 82 282 -32 376 -63 52 -161 74 -233 52z m171 -61 c127 -65 157 -229 62
-339 -45 -53 -104 -75 -186 -69 -75 4 -122 31 -164 92 -39 55 -45 156 -13 221
52 108 190 151 301 95z"/>
<path d="M1184 511 c-72 -44 -98 -121 -66 -193 25 -56 71 -90 131 -95 54 -6
101 20 139 77 46 68 14 178 -64 215 -44 20 -102 19 -140 -4z m146 -48 c57 -52
56 -129 -1 -177 -72 -61 -189 -6 -189 89 0 96 120 151 190 88z"/>
<path d="M2096 624 c-64 -20 -137 -92 -159 -159 -43 -125 3 -250 115 -314 110
-63 225 -47 315 42 91 92 105 209 37 324 -15 26 -45 57 -72 74 -81 51 -146 60
-236 33z m194 -57 c26 -13 58 -41 75 -66 25 -36 30 -54 33 -114 3 -60 0 -79
-20 -116 -36 -67 -95 -104 -172 -109 -110 -7 -180 31 -222 123 -91 194 111
380 306 282z"/>
<path d="M2130 523 c-23 -8 -70 -55 -86 -85 -62 -120 85 -265 206 -203 52 27
84 80 84 140 1 60 -18 95 -74 133 -32 21 -93 28 -130 15z m118 -49 c71 -50 66
-161 -10 -200 -78 -40 -168 14 -168 102 0 39 5 51 34 80 28 28 41 34 78 34 24
0 54 -7 66 -16z"/>
</g>
</svg>
